<?xml version="1.0" encoding="UTF-8"?>
<!-- Created with Inkscape (http://www.inkscape.org/) -->
<svg width="132.29mm" height="132.29mm" version="1.1" viewBox="0 0 132.29 132.29" xmlns="http://www.w3.org/2000/svg" xmlns:cc="http://creativecommons.org/ns#" xmlns:dc="http://purl.org/dc/elements/1.1/" xmlns:rdf="http://www.w3.org/1999/02/22-rdf-syntax-ns#">
 <metadata>
  <rdf:RDF>
   <cc:Work rdf:about="">
    <dc:format>image/svg+xml</dc:format>
    <dc:type rdf:resource="http://purl.org/dc/dcmitype/StillImage"/>
    <dc:title/>
   </cc:Work>
  </rdf:RDF>
 </metadata>
 <g transform="translate(0 -164.71)">
  <g stroke-width=".26458">
   <rect y="164.71" width="132.29" height="26.458" rx="2.6458" ry="2.6458"/>
   <rect y="217.62" width="132.29" height="26.458" rx="2.6458" ry="2.6458"/>
   <rect y="270.54" width="132.29" height="26.458" rx="2.6458" ry="2.6458"/>
  </g>
  <g>
   <path transform="matrix(.26458 0 0 .26458 0 164.71)" d="m6.0716 98.431c-1.7442-0.7605-3.6567-2.2898-4.25-3.3984-0.72415-1.3531-1.0787-16.291-1.0787-45.445v-43.429l5.2727-5.2727h487.62l5.6115 4.8268v88.128l-5.5454 5.5455-242.23 0.21412c-204.33 0.18062-242.72-0.002208-245.4-1.1686z"/>
   <path transform="matrix(.26458 0 0 .26458 0 164.71)" d="m6.0716 298.43c-1.7442-0.7605-3.6567-2.2898-4.25-3.3984-0.72415-1.3531-1.0787-16.291-1.0787-45.445v-43.429l5.2727-5.2727h487.62l5.6115 4.8268v88.128l-5.5454 5.5454-242.23 0.21412c-204.33 0.18062-242.72-0.00221-245.4-1.1686z"/>
   <path transform="matrix(.26458 0 0 .26458 0 164.71)" d="m6.0716 498.43c-1.7442-0.7605-3.6567-2.2898-4.25-3.3984-0.72415-1.3531-1.0787-16.291-1.0787-45.445v-43.429l5.2727-5.2727h487.62l5.6115 4.8268v88.128l-5.5454 5.5454-242.23 0.21412c-204.33 0.18062-242.72-0.00221-245.4-1.1686z"/>
  </g>
 </g>
</svg>
